<svg xmlns="http://www.w3.org/2000/svg" width="44.119mm" height="15.189mm" viewBox="0 0 125.061 43.056">
  <title>Artboard 17</title>
  <g>
    <path d="M6.5,5.527H9.234q3.173,0,4.556,1.5A4.86,4.86,0,0,1,14.828,9a10.846,10.846,0,0,1,.354,2.979q0,3.415-1.392,4.937T9.234,18.436H6.5ZM9.744,16.136a2.392,2.392,0,0,0,2.144-.951,6.005,6.005,0,0,0,.64-3.217,5.963,5.963,0,0,0-.64-3.2,2.388,2.388,0,0,0-2.144-.942H9.052v8.309Z" fill="#d43c29"/>
    <path d="M20.633,5.527h3.122l3.484,12.909H24.688l-.795-3.191H20.478L19.7,18.436h-2.55ZM23.4,13.144,22.19,7.861l-1.2,5.283Z" fill="#d43c29"/>
    <path d="M29.438,5.527h2.741l3.6,9.381V5.527h2.248V18.436H35.3L31.686,9.054v9.382H29.438Z" fill="#d43c29"/>
    <path d="M41.443,16.188h2.568V7.775H41.443V5.527H49.13V7.775H46.562v8.413H49.13v2.248H41.443Z" fill="#d43c29"/>
    <path d="M52.954,5.527H61V7.775h-5.49v2.784h4.971v2.248H55.505v3.381H61v2.248H52.954Z" fill="#d43c29"/>
    <path d="M64.993,5.527h2.551V16.188H73v2.248H64.993Z" fill="#d43c29"/>
    <path d="M6.5,24.653H8.733l.925,9.476L10.773,28h2.118l1.3,6.13.727-9.476h2.248L15.675,37.562H13.3l-1.47-6.779-1.375,6.779H8.092Z" fill="#d43c29"/>
    <path d="M19.5,24.653h8.041V26.9H22.051v2.784h4.971v2.248H22.051v3.381h5.491v2.248H19.5Z" fill="#d43c29"/>
    <path d="M34.627,37.813a9.8,9.8,0,0,1-1.012-.052,7.545,7.545,0,0,1-.986-.173,8,8,0,0,1-1.868-.683V34.267a8.755,8.755,0,0,0,1.981,1.081,5.4,5.4,0,0,0,1.867.355,2.275,2.275,0,0,0,1.479-.432,1.457,1.457,0,0,0,.518-1.194,1.559,1.559,0,0,0-.346-1.02,1.916,1.916,0,0,0-.436-.393,3.018,3.018,0,0,0-.567-.29L34,31.9a10.445,10.445,0,0,1-1.634-.766,3.936,3.936,0,0,1-.978-.782,3.2,3.2,0,0,1-.682-2.171,3.49,3.49,0,0,1,1.124-2.757,4.475,4.475,0,0,1,3.078-1,8.059,8.059,0,0,1,1.794.19,9.164,9.164,0,0,1,1.759.613v2.491a5.735,5.735,0,0,0-3.355-1.185A2.258,2.258,0,0,0,33.7,26.9a1.245,1.245,0,0,0-.492,1.055,1.176,1.176,0,0,0,.362.89,2.156,2.156,0,0,0,.515.355,8.956,8.956,0,0,0,.981.424l1.1.414a5.083,5.083,0,0,1,2.291,1.5,3.839,3.839,0,0,1,.734,2.429,3.515,3.515,0,0,1-1.158,2.871A5.2,5.2,0,0,1,34.627,37.813Z" fill="#d43c29"/>
    <path d="M45.2,26.884H41.919V24.653h9.1v2.231H47.746V37.562H45.2Z" fill="#d43c29"/>
    <path d="M53.767,24.636h4.159a5.342,5.342,0,0,1,3.243.813,2.88,2.88,0,0,1,1.08,2.446,2.5,2.5,0,0,1-2.516,2.759,3.236,3.236,0,0,1,2.231.994,3.486,3.486,0,0,1,.744,2.378,3.145,3.145,0,0,1-1.124,2.7,6.206,6.206,0,0,1-3.658.839H53.767Zm4.159,5.032a2.1,2.1,0,0,0,1.383-.355,1.092,1.092,0,0,0,.3-.436,1.945,1.945,0,0,0,.1-.7,1.242,1.242,0,0,0-.912-1.409,2.931,2.931,0,0,0-.877-.1h-1.7v3Zm0,5.853a2.7,2.7,0,0,0,1.712-.415,1.822,1.822,0,0,0,.484-1.444,1.936,1.936,0,0,0-.51-1.5,2.5,2.5,0,0,0-1.686-.459h-1.7v3.822Z" fill="#d43c29"/>
    <path d="M65.382,24.653h3.684a5.717,5.717,0,0,1,3.579.882,2.651,2.651,0,0,1,.814,1.163,4.781,4.781,0,0,1,.267,1.664,4.241,4.241,0,0,1-.16,1.245,2.635,2.635,0,0,1-.488.917,2.424,2.424,0,0,1-.765.618,3.319,3.319,0,0,1-1.1.324,1.361,1.361,0,0,1,.665.355,2.271,2.271,0,0,1,.3.4c.113.178.241.412.385.7l2.334,4.643h-2.8L70.536,34.3l-.182-.38a3.838,3.838,0,0,0-.743-1.1,1.227,1.227,0,0,0-.865-.358h-.813v5.1H65.382Zm3.753,5.663a2.209,2.209,0,0,0,1.5-.415,1.3,1.3,0,0,0,.329-.51,2.426,2.426,0,0,0,.122-.838,1.73,1.73,0,0,0-.451-1.35,2.25,2.25,0,0,0-1.5-.406h-1.2v3.519Z" fill="#d43c29"/>
    <path d="M81.105,37.813a4.272,4.272,0,0,1-2-.437,3.731,3.731,0,0,1-1.379-1.249,8.95,8.95,0,0,1-1.15-5.007,9.042,9.042,0,0,1,1.15-5.014,3.581,3.581,0,0,1,1.461-1.284,4.481,4.481,0,0,1,1.92-.4,3.857,3.857,0,0,1,3.4,1.694,9,9,0,0,1,1.141,5.006,9.012,9.012,0,0,1-1.141,5,3.74,3.74,0,0,1-1.4,1.258A4.294,4.294,0,0,1,81.105,37.813Zm0-2.292a1.5,1.5,0,0,0,1.435-1.046,8.991,8.991,0,0,0,.45-3.363,8.96,8.96,0,0,0-.45-3.355,1.5,1.5,0,0,0-2.862,0,8.981,8.981,0,0,0-.45,3.355,9.012,9.012,0,0,0,.45,3.363A1.5,1.5,0,0,0,81.105,35.521Z" fill="#d43c29"/>
    <path d="M92.651,37.813a4.265,4.265,0,0,1-2-.437,3.719,3.719,0,0,1-1.38-1.249,8.951,8.951,0,0,1-1.149-5.007,9.042,9.042,0,0,1,1.149-5.014,3.583,3.583,0,0,1,1.462-1.284,4.48,4.48,0,0,1,1.919-.4,3.855,3.855,0,0,1,3.4,1.694A9,9,0,0,1,97.19,31.12a9,9,0,0,1-1.141,5,3.737,3.737,0,0,1-1.4,1.258A4.306,4.306,0,0,1,92.651,37.813Zm0-2.292a1.5,1.5,0,0,0,1.436-1.046,9.016,9.016,0,0,0,.449-3.363,8.985,8.985,0,0,0-.449-3.355,1.5,1.5,0,0,0-2.863,0,8.964,8.964,0,0,0-.449,3.355,9,9,0,0,0,.449,3.363A1.5,1.5,0,0,0,92.651,35.521Z" fill="#d43c29"/>
    <path d="M99.882,24.653h2.551v5.1l3.994-5.1h2.889l-4.073,5.084,4.22,7.825h-2.836l-3.061-5.81-1.133,1.435v4.375H99.882Z" fill="#d43c29"/>
    <rect x="112.506" y="24.657" width="5.694" height="12.906" fill="#d43c29"/>
  </g>
</svg>
