<svg xmlns="http://www.w3.org/2000/svg" width="14.463mm" height="9.144mm" viewBox="0 0 40.998 25.92">
  <title>Artboard 14</title>
  <g>
    <g>
      <path d="M5.5,6.823H8.234q3.173,0,4.557,1.5A4.858,4.858,0,0,1,13.828,10.3a10.838,10.838,0,0,1,.354,2.978q0,3.417-1.391,4.937T8.234,19.732H5.5ZM8.744,17.432a2.392,2.392,0,0,0,2.144-.951,6,6,0,0,0,.64-3.216,5.961,5.961,0,0,0-.64-3.2,2.387,2.387,0,0,0-2.144-.943H8.052v8.309Z" fill="#d43c29"/>
      <path d="M15.864,6.823h2.23l.925,9.477,1.116-6.13h2.119l1.3,6.13.726-9.477h2.248L25.038,19.732H22.66l-1.47-6.779-1.375,6.779h-2.36Z" fill="#d43c29"/>
    </g>
    <rect x="29.417" y="6.827" width="5.694" height="12.906" fill="#d43c29"/>
  </g>
</svg>
