<svg xmlns="http://www.w3.org/2000/svg" width="71.967mm" height="9.144mm" viewBox="0 0 204 25.92">
  <title>Artboard 16</title>
  <g>
    <path d="M9.237,6.971h2.732q3.174,0,4.557,1.505a4.861,4.861,0,0,1,1.038,1.966,10.846,10.846,0,0,1,.354,2.979q0,3.416-1.392,4.937T11.969,19.88H9.237ZM12.48,17.58a2.394,2.394,0,0,0,2.144-.951,6.013,6.013,0,0,0,.64-3.216,5.976,5.976,0,0,0-.64-3.2,2.39,2.39,0,0,0-2.144-.942h-.692V17.58Z" fill="#d43c29"/>
    <path d="M23.369,6.971H26.49L29.975,19.88H27.424l-.8-3.191H23.213l-.778,3.191H19.884Zm2.767,7.617L24.925,9.306l-1.2,5.282Z" fill="#d43c29"/>
    <path d="M32.174,6.971h2.741l3.6,9.381V6.971H40.76V19.88H38.036L34.422,10.5V19.88H32.174Z" fill="#d43c29"/>
    <path d="M44.179,17.632h2.568V9.219H44.179V6.971h7.686V9.219H49.3v8.413h2.568V19.88H44.179Z" fill="#d43c29"/>
    <path d="M55.69,6.971h8.041V9.219h-5.49V12h4.971v2.248H58.241v3.381h5.49V19.88H55.69Z" fill="#d43c29"/>
    <path d="M67.729,6.971H70.28V17.632h5.455V19.88H67.729Z" fill="#d43c29"/>
    <path d="M84.33,6.971h2.232l.924,9.476,1.116-6.13H90.72l1.3,6.13.726-9.476h2.248L93.5,19.88H91.126L89.656,13.1,88.281,19.88h-2.36Z" fill="#d43c29"/>
    <path d="M97.329,6.971h8.041V9.219H99.88V12h4.971v2.248H99.88v3.381h5.49V19.88H97.329Z" fill="#d43c29"/>
    <path d="M112.455,20.131a9.819,9.819,0,0,1-1.012-.052,7.545,7.545,0,0,1-.986-.173,7.97,7.97,0,0,1-1.867-.683V16.585a8.8,8.8,0,0,0,1.98,1.082,5.431,5.431,0,0,0,1.868.354,2.274,2.274,0,0,0,1.478-.432,1.454,1.454,0,0,0,.519-1.193,1.568,1.568,0,0,0-.346-1.021,1.921,1.921,0,0,0-.437-.393,3.039,3.039,0,0,0-.566-.29l-1.254-.475a10.488,10.488,0,0,1-1.634-.766,3.929,3.929,0,0,1-.977-.782,3.2,3.2,0,0,1-.683-2.17,3.49,3.49,0,0,1,1.124-2.758,4.475,4.475,0,0,1,3.078-1,8.046,8.046,0,0,1,1.794.19,9.089,9.089,0,0,1,1.76.614v2.49a5.737,5.737,0,0,0-3.355-1.185,2.261,2.261,0,0,0-1.41.372,1.245,1.245,0,0,0-.492,1.055,1.18,1.18,0,0,0,.362.891,2.229,2.229,0,0,0,.515.354,9.075,9.075,0,0,0,.982.424l1.1.414a5.077,5.077,0,0,1,2.291,1.505,3.841,3.841,0,0,1,.735,2.43,3.511,3.511,0,0,1-1.159,2.87A5.193,5.193,0,0,1,112.455,20.131Z" fill="#d43c29"/>
    <path d="M123.023,9.2h-3.276V6.971h9.105V9.2h-3.278V19.88h-2.551Z" fill="#d43c29"/>
    <path d="M131.6,6.954h4.159A5.341,5.341,0,0,1,139,7.767a2.877,2.877,0,0,1,1.08,2.446,2.821,2.821,0,0,1-.639,1.946,2.807,2.807,0,0,1-1.876.813,3.234,3.234,0,0,1,2.23.994,3.486,3.486,0,0,1,.744,2.378,3.145,3.145,0,0,1-1.124,2.7,6.2,6.2,0,0,1-3.657.839H131.6Zm4.159,5.032a2.106,2.106,0,0,0,1.383-.355,1.09,1.09,0,0,0,.3-.436,1.919,1.919,0,0,0,.1-.7,1.467,1.467,0,0,0-.415-1.15,1.463,1.463,0,0,0-.5-.26,2.931,2.931,0,0,0-.877-.1H134.06v3Zm0,5.853a2.7,2.7,0,0,0,1.712-.415,1.824,1.824,0,0,0,.483-1.444,1.936,1.936,0,0,0-.51-1.5,2.494,2.494,0,0,0-1.685-.458H134.06v3.821Z" fill="#d43c29"/>
    <path d="M143.211,6.971H146.9a5.719,5.719,0,0,1,3.579.882,2.649,2.649,0,0,1,.813,1.163,4.757,4.757,0,0,1,.268,1.664,4.236,4.236,0,0,1-.16,1.245,2.654,2.654,0,0,1-.489.917,2.431,2.431,0,0,1-.764.618,3.3,3.3,0,0,1-1.1.324,1.356,1.356,0,0,1,.665.355,2.268,2.268,0,0,1,.3.4c.112.178.24.412.385.7l2.334,4.643h-2.8l-1.557-3.26-.181-.38a3.858,3.858,0,0,0-.744-1.1,1.226,1.226,0,0,0-.865-.358h-.812v5.1h-2.551Zm3.753,5.663a2.213,2.213,0,0,0,1.5-.415,1.306,1.306,0,0,0,.329-.51,2.429,2.429,0,0,0,.121-.838,1.73,1.73,0,0,0-.45-1.35,2.253,2.253,0,0,0-1.5-.406h-1.2v3.519Z" fill="#d43c29"/>
    <path d="M158.934,20.131a4.266,4.266,0,0,1-2-.437,3.716,3.716,0,0,1-1.379-1.249,8.941,8.941,0,0,1-1.151-5.007,9.033,9.033,0,0,1,1.151-5.014,3.574,3.574,0,0,1,1.461-1.284,4.5,4.5,0,0,1,1.92-.4,3.854,3.854,0,0,1,3.4,1.694,9,9,0,0,1,1.142,5.006,9,9,0,0,1-1.142,5,3.737,3.737,0,0,1-1.4,1.258A4.3,4.3,0,0,1,158.934,20.131Zm0-2.292a1.5,1.5,0,0,0,1.434-1.046,8.987,8.987,0,0,0,.45-3.363,8.963,8.963,0,0,0-.45-3.355,1.5,1.5,0,0,0-2.861,0,8.963,8.963,0,0,0-.45,3.355,8.987,8.987,0,0,0,.45,3.363A1.5,1.5,0,0,0,158.934,17.839Z" fill="#d43c29"/>
    <path d="M170.48,20.131a4.259,4.259,0,0,1-2-.437,3.719,3.719,0,0,1-1.38-1.249,8.942,8.942,0,0,1-1.15-5.007,9.033,9.033,0,0,1,1.15-5.014,3.571,3.571,0,0,1,1.462-1.284,4.492,4.492,0,0,1,1.919-.4,3.855,3.855,0,0,1,3.4,1.694,9,9,0,0,1,1.141,5.006,9,9,0,0,1-1.141,5,3.74,3.74,0,0,1-1.4,1.258A4.3,4.3,0,0,1,170.48,20.131Zm0-2.292a1.5,1.5,0,0,0,1.435-1.046,8.992,8.992,0,0,0,.449-3.363,8.968,8.968,0,0,0-.449-3.355,1.5,1.5,0,0,0-2.862,0,8.968,8.968,0,0,0-.449,3.355,8.992,8.992,0,0,0,.449,3.363A1.5,1.5,0,0,0,170.48,17.839Z" fill="#d43c29"/>
    <path d="M177.711,6.971h2.551v5.1l3.994-5.1h2.889l-4.074,5.084,4.22,7.825h-2.836l-3.06-5.81-1.133,1.435V19.88h-2.551Z" fill="#d43c29"/>
    <rect x="190.334" y="6.975" width="5.694" height="12.906" fill="#d43c29"/>
  </g>
</svg>
